<?xml version="1.0" standalone="no"?>
<!DOCTYPE svg PUBLIC "-//W3C//DTD SVG 20010904//EN"
 "http://www.w3.org/TR/2001/REC-SVG-20010904/DTD/svg10.dtd">
<svg version="1.0" xmlns="http://www.w3.org/2000/svg"
 width="1946.000000pt" height="1946.000000pt" viewBox="0 0 1946.000000 1946.000000"
 preserveAspectRatio="xMidYMid meet">
<metadata>
Created by potrace 1.14, written by Peter Selinger 2001-2017
</metadata>
<g transform="translate(0.000000,1946.000000) scale(0.100000,-0.100000)"
fill="#000000" stroke="none">
<path d="M9590 19319 c-489 -34 -904 -98 -1324 -205 -942 -240 -1794 -708
-2450 -1344 -737 -716 -1181 -1624 -1326 -2711 -45 -340 -51 -473 -57 -1241
l-6 -738 -1063 0 -1064 0 0 -1670 0 -1670 1065 0 1065 0 0 -4805 0 -4805 2135
0 2135 0 0 4805 0 4805 1940 0 c1204 0 1940 4 1940 9 0 10 -776 3281 -786
3314 -5 16 -88 17 -1550 17 l-1544 0 0 288 c0 765 59 1118 249 1507 163 332
393 572 683 713 295 144 614 186 1063 141 403 -40 820 -161 1228 -356 75 -37
139 -64 140 -62 6 7 1219 2950 1224 2968 11 42 -315 260 -606 405 -604 303
-1373 535 -2061 622 -156 19 -817 28 -1030 13z"/>
<path d="M14665 4633 c-539 -47 -1006 -265 -1390 -648 -347 -347 -556 -756
-630 -1235 -22 -147 -31 -448 -16 -606 48 -521 260 -971 636 -1350 354 -356
745 -559 1240 -641 158 -26 612 -26 770 0 327 54 599 159 854 328 479 317 834
826 950 1359 69 319 71 730 5 1048 -89 431 -299 810 -630 1134 -180 177 -340
291 -559 398 -311 153 -634 222 -1015 218 -96 -1 -193 -3 -215 -5z"/>
</g>
</svg>
